<svg width="48" height="49" viewBox="0 0 48 49" fill="none" xmlns="http://www.w3.org/2000/svg">
<g id="cleanliness 1">
<rect width="48" height="48" transform="translate(0 0.0947266)" fill="white"/>
<g id="Icons">
<g id="cleanliness">
<path id="Vector" d="M41.3274 3.09839H6V10.4873H41.3274V3.09839Z" fill="#AFC9CA"/>
<path id="Vector_2" d="M23.6637 34.0499C28.7686 34.0499 32.907 29.9116 32.907 24.8067C32.907 19.7018 28.7686 15.5635 23.6637 15.5635C18.5589 15.5635 14.4205 19.7018 14.4205 24.8067C14.4205 29.9116 18.5589 34.0499 23.6637 34.0499Z" fill="#F39A24"/>
<path id="Vector_3" d="M6 3.09473V34.9263L15.0292 41.3401C17.5518 43.132 20.5694 44.0947 23.6637 44.0947C26.758 44.0947 29.7756 43.132 32.2982 41.3401L41.3274 34.9263V3.09473H6Z" stroke="#006837" stroke-width="1.5" stroke-miterlimit="10"/>
<path id="Vector_4" d="M18.611 25.2514L21.6544 28.0181L28.7166 21.5967" stroke="white" stroke-width="1.5" stroke-linejoin="round"/>
</g>
</g>
</g>
</svg>
