<svg width="48" height="49" viewBox="0 0 48 49" fill="none" xmlns="http://www.w3.org/2000/svg">
<g id="cost 1">
<g id="Icons">
<g id="cost">
<path id="Vector" d="M7.13428 16.0919V10.2197H45.8691V32.5664H40.7973" stroke="#008488" stroke-width="1.5" stroke-miterlimit="10"/>
<path id="Vector_2" d="M40.7974 16.0918H2.0625V38.0259H40.7974V16.0918Z" stroke="#006837" stroke-width="1.5" stroke-miterlimit="10"/>
</g>
</g>
<path id="Vector_3" d="M27.0468 21.8447H31.4062V26.2041C31.4062 26.9367 31.262 27.662 30.9816 28.3388C30.7013 29.0155 30.2904 29.6305 29.7725 30.1484C29.2545 30.6664 28.6396 31.0773 27.9628 31.3576C27.286 31.6379 26.5607 31.7822 25.8282 31.7822H21.4688V27.4228C21.4687 25.9434 22.0564 24.5246 23.1025 23.4785C24.1486 22.4324 25.5674 21.8447 27.0468 21.8447Z" fill="#F39A24"/>
<path id="Vector_4" d="M27 26.251L20.9062 32.3447" stroke="#006837" stroke-width="1.5" stroke-linejoin="round"/>
<path id="Vector_5" d="M21.4688 31.7822H17.1093C15.6299 31.7822 14.2111 31.1945 13.165 30.1484C12.1189 29.1023 11.5312 27.6835 11.5312 26.2041L11.5312 21.8447H15.8907C17.3701 21.8447 18.7889 22.4324 19.835 23.4785C20.8811 24.5246 21.4688 25.9434 21.4688 27.4228V31.7822Z" fill="#AFC9CA"/>
<path id="Vector_6" d="M15.8438 26.251L22.0313 32.3447" stroke="#006837" stroke-width="1.5" stroke-linejoin="round"/>
</g>
</svg>
