<svg width="25" height="25" viewBox="0 0 25 25" fill="none" xmlns="http://www.w3.org/2000/svg">
<g id="Icon / Facebook">
<path id="Vector" d="M17.1666 6.59473H14.1666C13.6143 6.59473 13.1666 7.04245 13.1666 7.59473V10.5947H17.1666C17.2803 10.5922 17.3882 10.6451 17.4558 10.7366C17.5234 10.8281 17.5424 10.9467 17.5066 11.0547L16.7666 13.2547C16.6984 13.4566 16.5097 13.5931 16.2966 13.5947H13.1666V21.0947C13.1666 21.3708 12.9427 21.5947 12.6666 21.5947H10.1666C9.89049 21.5947 9.66663 21.3708 9.66663 21.0947V13.5947H8.16663C7.89049 13.5947 7.66663 13.3708 7.66663 13.0947V11.0947C7.66663 10.8186 7.89049 10.5947 8.16663 10.5947H9.66663V7.59473C9.66663 5.38559 11.4575 3.59473 13.6666 3.59473H17.1666C17.4427 3.59473 17.6666 3.81859 17.6666 4.09473V6.09473C17.6666 6.37087 17.4427 6.59473 17.1666 6.59473Z" fill="#699698"/>
</g>
</svg>
