<svg width="25" height="25" viewBox="0 0 25 25" fill="none" xmlns="http://www.w3.org/2000/svg">
<g id="Icon / Instagram">
<path id="Vector" fill-rule="evenodd" clip-rule="evenodd" d="M16.6666 3.59473H8.66663C5.90521 3.59473 3.66663 5.83331 3.66663 8.59473V16.5947C3.66663 19.3561 5.90521 21.5947 8.66663 21.5947H16.6666C19.428 21.5947 21.6666 19.3561 21.6666 16.5947V8.59473C21.6666 5.83331 19.428 3.59473 16.6666 3.59473ZM19.9166 16.5947C19.9111 18.3873 18.4592 19.8392 16.6666 19.8447H8.66663C6.87398 19.8392 5.42212 18.3873 5.41663 16.5947V8.59473C5.42212 6.80208 6.87398 5.35022 8.66663 5.34473H16.6666C18.4592 5.35022 19.9111 6.80208 19.9166 8.59473V16.5947ZM17.4166 8.84473C17.9689 8.84473 18.4166 8.39701 18.4166 7.84473C18.4166 7.29245 17.9689 6.84473 17.4166 6.84473C16.8643 6.84473 16.4166 7.29245 16.4166 7.84473C16.4166 8.39701 16.8643 8.84473 17.4166 8.84473ZM12.6666 8.09473C10.1813 8.09473 8.16663 10.1094 8.16663 12.5947C8.16663 15.08 10.1813 17.0947 12.6666 17.0947C15.1519 17.0947 17.1666 15.08 17.1666 12.5947C17.1693 11.4004 16.696 10.2543 15.8515 9.40981C15.007 8.56532 13.8609 8.09207 12.6666 8.09473ZM9.91663 12.5947C9.91663 14.1135 11.1478 15.3447 12.6666 15.3447C14.1854 15.3447 15.4166 14.1135 15.4166 12.5947C15.4166 11.0759 14.1854 9.84473 12.6666 9.84473C11.1478 9.84473 9.91663 11.0759 9.91663 12.5947Z" fill="#699698"/>
</g>
</svg>
