<svg width="48" height="49" viewBox="0 0 48 49" fill="none" xmlns="http://www.w3.org/2000/svg">
<g id="labor dependence 1">
<g id="Icons">
<g id="labor dependence">
<path id="Vector" d="M41.7368 22.0947H36.9851C35.812 22.0947 34.861 23.214 34.861 24.5947C34.861 25.9754 35.812 27.0947 36.9851 27.0947H41.7368C42.9099 27.0947 43.861 25.9754 43.861 24.5947C43.861 23.214 42.9099 22.0947 41.7368 22.0947Z" stroke="#006837" stroke-width="1.5" stroke-linejoin="round"/>
<path id="Vector_2" d="M40.9728 27.0947H36.7491C35.7063 27.0947 34.861 27.9902 34.861 29.0947C34.861 30.1993 35.7063 31.0947 36.7491 31.0947H40.9728C42.0156 31.0947 42.861 30.1993 42.861 29.0947C42.861 27.9902 42.0156 27.0947 40.9728 27.0947Z" stroke="#006837" stroke-width="1.5" stroke-linejoin="round"/>
<path id="Vector_3" d="M36.7555 36.0947H39.9664C40.2152 36.0947 40.4616 36.0301 40.6914 35.9044C40.9213 35.7788 41.1301 35.5946 41.3061 35.3625C41.482 35.1303 41.6215 34.8547 41.7168 34.5514C41.812 34.2481 41.861 33.923 41.861 33.5947V33.5947C41.861 33.2664 41.812 32.9413 41.7168 32.638C41.6215 32.3347 41.482 32.0591 41.3061 31.827C41.1301 31.5948 40.9213 31.4107 40.6914 31.285C40.4616 31.1594 40.2152 31.0947 39.9664 31.0947H36.7555C36.253 31.0947 35.7711 31.3581 35.4159 31.827C35.0606 32.2958 34.861 32.9317 34.861 33.5947C34.861 34.2578 35.0606 34.8937 35.4159 35.3625C35.7711 35.8313 36.253 36.0947 36.7555 36.0947Z" stroke="#006837" stroke-width="1.5" stroke-linejoin="round"/>
<path id="Vector_4" d="M35.6734 40.4536C35.9748 40.4537 36.2732 40.3944 36.5516 40.2792C36.83 40.164 37.083 39.995 37.2962 39.782C37.5093 39.5689 37.6784 39.316 37.7937 39.0376C37.909 38.7592 37.9684 38.4608 37.9684 38.1595V38.1595C37.9684 37.8581 37.9091 37.5597 37.7937 37.2812C37.6784 37.0028 37.5093 36.7498 37.2962 36.5367C37.0831 36.3236 36.8301 36.1545 36.5517 36.0392C36.2732 35.9239 35.9748 35.8645 35.6734 35.8645V35.8645C35.0647 35.8645 34.481 36.1063 34.0506 36.5367C33.6202 36.9671 33.3784 37.5508 33.3784 38.1595C33.3784 38.4608 33.4378 38.7592 33.5531 39.0376C33.6685 39.316 33.8375 39.5689 34.0507 39.782C34.2638 39.995 34.5168 40.164 34.7952 40.2792C35.0737 40.3944 35.3721 40.4537 35.6734 40.4536V40.4536Z" stroke="#006837" stroke-width="1.5" stroke-linejoin="round"/>
<path id="Vector_5" d="M4 38.1594H5.62187C7.87844 38.1594 10.0909 38.8954 11.8356 40.3288C12.7299 41.0667 13.8534 41.4701 15.0128 41.4697H30.861" stroke="#006837" stroke-width="1.5" stroke-linejoin="round"/>
<path id="Vector_6" d="M15.9681 25.596H21.0868C22.6553 25.596 24.0615 24.4203 24.1431 22.8538C24.1642 22.4607 24.1051 22.0675 23.9692 21.6981C23.8334 21.3287 23.6237 20.9908 23.353 20.7051C23.0823 20.4193 22.7562 20.1918 22.3946 20.0362C22.033 19.8807 21.6436 19.8004 21.25 19.8003H12.8921C6.41401 19.7816 4.00464 24.74 4.00464 24.74" stroke="#006837" stroke-width="1.5" stroke-linejoin="round"/>
</g>
</g>
<g id="Icons_2">
<g id="growing recipe">
<path id="Vector_7" d="M22.861 13.0947L22.861 16.1857" stroke="#008488" stroke-width="1.5" stroke-linejoin="round"/>
<path id="Vector_8" d="M22.861 27.0947L22.861 31.0947" stroke="#008488" stroke-width="1.5" stroke-linejoin="round"/>
<path id="Vector_9" d="M35.2123 7.7312L17.7154 7.7312C17.2236 7.7312 16.7519 7.92657 16.4042 8.27434C16.0564 8.6221 15.861 9.09377 15.861 9.58559L15.861 35.2394C15.861 35.7312 16.0564 36.2029 16.4042 36.5506C16.7519 36.8984 17.2236 37.0938 17.7154 37.0938L35.2123 37.0938" stroke="#AFC9CA" stroke-width="1.5" stroke-linejoin="round"/>
<path id="Vector_10" d="M28.4058 19.292L28.4058 31.5843" stroke="#008488" stroke-width="1.5" stroke-linejoin="round"/>
<path id="Vector_11" d="M27.1743 15.1011C27.1743 15.7812 27.7257 16.3325 28.4058 16.3325C29.0859 16.3325 29.6372 15.7812 29.6372 15.1011C29.6372 14.421 29.0859 13.8696 28.4058 13.8696C27.7257 13.8696 27.1743 14.421 27.1743 15.1011Z" stroke="#0699DE" stroke-width="1.5" stroke-linejoin="round"/>
<path id="Vector_12" d="M35.2122 37.7346C36.1233 37.7346 36.861 36.9647 36.861 36.0145L36.861 8.81484C36.861 7.8647 36.1233 7.09473 35.2122 7.09473L33.5278 7.09473L33.5278 37.7346L35.2122 37.7346Z" fill="#F39A24"/>
</g>
</g>
</g>
</svg>
