<svg width="122" height="46" viewBox="0 0 122 46" fill="none" xmlns="http://www.w3.org/2000/svg">
<g clip-path="url(#clip0_1211_913)">
<path d="M26.8245 23.6932H16.7312C16.9631 24.5056 17.4102 25.1489 18.0653 25.6244C18.7232 26.0999 19.5202 26.3384 20.4621 26.3384C21.2184 26.3384 21.9128 26.1901 22.5454 25.8892C23.1766 25.5911 23.6756 25.2113 24.0425 24.751L26.2622 26.6711C25.572 27.4835 24.7173 28.1143 23.6995 28.5649C22.6804 29.0169 21.567 29.2429 20.3609 29.2429C18.9973 29.2429 17.7616 28.9476 16.6553 28.357C15.5475 27.7664 14.683 26.9526 14.0603 25.9142C13.4361 24.8772 13.124 23.7251 13.124 22.4621C13.124 21.1991 13.4249 20.0817 14.0293 19.0613C14.2008 18.7702 14.3906 18.497 14.6015 18.242C14.8587 18.4139 15.1272 18.5678 15.3957 18.723C15.2973 18.863 15.0499 18.7923 15.0612 18.9573C15.0738 19.1071 15.2734 19.1473 15.4013 19.2166C15.9355 19.5036 16.5119 19.4689 17.0854 19.3843C17.3582 19.3427 17.6168 19.3538 17.8628 19.4134C17.2921 19.8862 16.9041 20.5142 16.7031 21.2948H23.3537C23.1457 20.4907 22.7408 19.8488 22.1377 19.3691C21.5698 18.9171 20.9105 18.6773 20.1626 18.6523C20.4016 18.2045 20.7826 17.8898 21.2732 17.6791C21.6204 17.5321 21.9761 17.399 22.3247 17.2521C22.7282 17.0816 23.088 16.8597 23.3875 16.563C23.9469 16.8597 24.4643 17.2424 24.938 17.7082C26.244 18.992 26.8962 20.6002 26.8962 22.5356C26.8962 22.9473 26.8723 23.3327 26.8217 23.6932H26.8245Z" fill="#008488"/>
<path d="M16.3503 14.9784C16.3643 14.8439 16.2392 14.7718 16.2181 14.6596C16.7087 14.5112 17.4453 14.9964 18.047 15.8491C17.9669 15.4623 17.9135 15.0782 17.9641 14.6817C18.0906 13.6919 18.5981 12.9238 19.36 12.2999C19.3965 12.2694 19.4556 12.2306 19.4921 12.2403C19.5694 12.2611 19.5301 12.3388 19.5315 12.3928C19.5343 12.501 19.5315 12.6105 19.5315 12.7172C19.554 12.7172 19.5779 12.7228 19.5821 12.7172C20.2442 11.701 21.2859 11.4182 22.4105 11.3004C22.6551 11.2754 22.9039 11.2726 23.1485 11.2463C23.3453 11.2255 23.41 11.2865 23.3706 11.4847C23.2146 12.2694 23.0627 13.0541 22.4822 13.6808C22.9222 13.7362 22.925 13.7362 22.8491 14.1826C22.7183 14.9562 22.4681 15.6813 21.9255 16.2996C22.0126 16.3606 22.0942 16.3287 22.1715 16.3177C22.2291 16.3093 22.298 16.2747 22.336 16.3357C22.3711 16.3925 22.3205 16.4466 22.2896 16.4965C22.0323 16.9166 21.6542 17.1911 21.2057 17.3824C20.9471 17.4919 20.6842 17.5904 20.427 17.6999C19.9827 17.8884 19.6622 18.1948 19.5006 18.6523C19.4851 18.6967 19.4837 18.7549 19.3712 18.7729C19.1182 16.5048 19.6749 14.5057 21.2774 12.8226C20.292 13.5768 19.6088 14.5403 19.2335 15.7146C18.8581 16.8902 18.8848 18.0756 19.1519 19.2803C18.4406 17.5834 17.3385 16.3093 15.4745 15.8227C17.1009 16.5256 18.1552 17.7331 18.7429 19.3788C18.6037 19.4093 18.5629 19.3178 18.5011 19.2706C18.1524 19.0086 17.7687 18.8949 17.3273 18.9615C16.9027 19.0253 16.4768 19.0502 16.0789 18.8367C15.9848 18.7854 15.8357 18.7563 15.8273 18.6454C15.8189 18.5234 16.0016 18.5761 16.0747 18.4707C15.8006 18.3127 15.5237 18.156 15.272 17.9633C15.0148 17.7664 14.7842 17.5432 14.572 17.302C14.3372 17.0344 14.34 17.0316 14.6549 16.8542C14.0251 16.5825 13.6104 16.0764 13.1606 15.6106C13.0214 15.4664 13.0242 15.3888 13.2239 15.3111C13.6737 15.1365 14.0828 14.8633 14.5678 14.7705C15.1596 14.6554 15.7359 14.6526 16.2758 14.9687C16.294 14.9798 16.3221 14.9756 16.3517 14.9798L16.3503 14.9784Z" fill="#008488"/>
<path d="M13.8284 11.4542V14.7524H8.69882V28.9725H5.1535V14.7524H0V11.4542H13.8284Z" fill="#008488"/>
<path d="M36.4177 15.8185H36.9828V19.2276H36.4177C35.227 19.2276 34.2992 19.5493 33.6328 20.1953C32.9665 20.84 32.6334 21.7162 32.6334 22.8239V28.9725H29.2891V16.0293H32.6334V17.7026C33.6385 16.4466 34.9008 15.8185 36.4177 15.8185Z" fill="#008488"/>
<path d="M46.0722 15.8185H46.6373V19.2276H46.0722C44.8815 19.2276 43.9537 19.5493 43.2874 20.1953C42.6211 20.84 42.2879 21.7162 42.2879 22.8239V28.9725H38.9436V16.0293H42.2879V17.7026C43.293 16.4466 44.5554 15.8185 46.0722 15.8185Z" fill="#008488"/>
<path d="M58.2279 16.0293H61.5722V28.9725H58.2279V27.4225C57.0794 28.662 55.6553 29.2817 53.9544 29.2817C52.1269 29.2817 50.6017 28.6328 49.3786 27.3352C48.1542 26.0375 47.5427 24.4266 47.5427 22.4995C47.5427 20.5724 48.1542 18.9629 49.3786 17.6638C50.6017 16.3662 52.1269 15.7173 53.9544 15.7173C55.6638 15.7173 57.0892 16.3329 58.2279 17.564V16.0265V16.0293ZM54.5954 26.0833C55.6343 26.0833 56.5002 25.7409 57.1918 25.0546C57.8835 24.3683 58.2293 23.5171 58.2293 22.5009C58.2293 21.4847 57.8835 20.6334 57.1918 19.9472C56.5002 19.2609 55.6357 18.9185 54.5954 18.9185C53.5551 18.9185 52.7061 19.2609 52.0187 19.9472C51.3312 20.6334 50.9882 21.4847 50.9882 22.5009C50.9882 23.5171 51.3312 24.3683 52.0187 25.0546C52.7061 25.7409 53.565 26.0833 54.5954 26.0833Z" fill="#008488"/>
<path d="M68.5112 25.6743H76.2555V28.9725H64.9546V11.4542H68.5126V25.6743H68.5112Z" fill="#006837"/>
<path d="M100.831 15.7188C102.314 15.7188 103.502 16.1568 104.394 17.033C105.287 17.9092 105.733 19.0793 105.733 20.542V28.9725H102.376V21.5346C102.376 20.7416 102.144 20.1066 101.678 19.6311C101.213 19.1556 100.59 18.9185 99.8116 18.9185C98.9906 18.9185 98.3243 19.1625 97.8126 19.6505C97.3009 20.1385 97.0465 20.7832 97.0465 21.5845V28.9739H93.7022V21.536C93.7022 20.7513 93.4646 20.1191 92.9923 19.6394C92.5185 19.1597 91.8874 18.9199 91.1001 18.9199C90.3129 18.9199 89.6255 19.1653 89.1138 19.6574C88.6021 20.1496 88.3463 20.7915 88.3463 21.5859V28.9753H85.002V16.0293H88.3463V17.3685C89.3345 16.2691 90.6292 15.7201 92.2304 15.7201C93.1441 15.7201 93.9552 15.9045 94.6623 16.2719C95.3708 16.6393 95.9345 17.1578 96.3534 17.8274C97.4345 16.423 98.926 15.7201 100.829 15.7201L100.831 15.7188Z" fill="#006837"/>
<path d="M118.657 16.0293H122.001V28.9725H118.657V27.4225C117.509 28.662 116.085 29.2817 114.384 29.2817C112.556 29.2817 111.031 28.6328 109.808 27.3352C108.584 26.0375 107.972 24.4266 107.972 22.4995C107.972 20.5724 108.584 18.9629 109.808 17.6638C111.031 16.3662 112.556 15.7173 114.384 15.7173C116.093 15.7173 117.519 16.3329 118.657 17.564V16.0265V16.0293ZM115.025 26.0833C116.064 26.0833 116.93 25.7409 117.621 25.0546C118.313 24.3683 118.659 23.5171 118.659 22.5009C118.659 21.4847 118.313 20.6334 117.621 19.9472C116.93 19.2609 116.065 18.9185 115.025 18.9185C113.984 18.9185 113.135 19.2609 112.448 19.9472C111.761 20.6334 111.418 21.4847 111.418 22.5009C111.418 23.5171 111.761 24.3683 112.448 25.0546C113.135 25.7409 113.994 26.0833 115.025 26.0833Z" fill="#006837"/>
<path d="M82.6108 0C82.9398 0.791622 82.8526 1.64424 82.9074 2.46082C83.204 6.80018 83.2842 11.1603 83.7368 15.4817C83.9449 17.4711 83.2111 18.7993 81.9009 20.0068C80.8283 20.9967 80.3672 22.1086 80.4797 23.5837C80.6385 25.6896 80.1648 27.8093 80.5275 29.9277C80.692 30.8899 80.8649 31.8021 81.9178 32.2291C82.3732 32.4135 82.7753 32.4371 83.235 32.1709C83.8971 31.7869 84.6084 31.4749 85.4504 31.5997C85.0976 31.7785 84.7391 31.9491 84.3933 32.139C84.2007 32.2444 83.8732 32.2832 83.9041 32.5563C83.9364 32.8419 84.2584 32.7864 84.4734 32.8294C86.0774 33.1483 87.7039 33.2925 89.3275 33.14C92.1587 32.8752 94.952 33.2037 97.7424 33.5656C98.7348 33.6945 99.6879 33.7527 100.669 33.5032C101.392 33.3188 102.141 33.2523 103.043 33.4727C102.388 33.8692 101.681 33.6959 101.099 34.1451C102.89 34.8702 104.712 35.3596 106.251 36.4714C103.086 35.763 100.004 34.6788 96.6712 34.6442C98.5198 35.6285 99.6233 37.471 101.47 38.4415C100.558 38.4221 99.8046 38.0436 99.1186 37.5279C98.077 36.7459 96.9875 36.05 95.853 35.3998C93.8217 34.2366 91.647 34.2865 89.1701 34.4626C91.7004 35.311 93.8484 36.3688 95.8938 37.9951C95.2331 38.0394 94.8817 37.7621 94.5035 37.5875C93.4211 37.0898 93.4239 37.0842 93.1048 38.1004C93.0781 38.0963 93.0303 38.0976 93.0261 38.0852C92.2051 35.824 89.9193 35.9238 88.1832 35.0656C88.165 35.2043 88.1382 35.2805 88.1551 35.293C90.0206 36.5421 91.4193 38.1947 92.5298 40.1162C93.0457 41.0077 93.8372 41.6398 94.765 42.1057C95.0363 42.2415 95.347 42.3372 95.638 42.7697C94.1282 42.5493 93.0303 41.9573 92.1672 40.9383C91.8888 40.6098 91.6231 40.2632 91.3996 39.8958C90.0866 37.7372 88.1087 36.3009 85.9776 35.0351C85.7428 34.8951 85.4561 34.6192 85.1918 34.8161C84.943 35.0033 85.1131 35.3498 85.144 35.6285C85.3211 37.2215 86.2433 38.3611 87.4424 39.3426C88.0539 39.8431 88.6457 40.3658 89.1968 40.948C88.3899 40.8759 87.7306 40.4684 86.8267 40.0275C87.3552 41.5386 88.4574 42.4245 89.0829 43.6016C87.7446 42.7115 86.9026 41.3834 85.8778 40.0691C85.6993 40.6472 86.114 41.1366 85.83 41.7022C85.3141 40.9383 85.0118 40.1439 84.898 39.3163C84.6913 37.8093 83.9772 36.4132 83.9533 34.8688C83.9477 34.5333 83.7818 34.2324 83.3671 34.2685C82.9651 34.3031 83.0143 34.647 82.9651 34.9242C82.8751 35.4344 82.9327 35.9959 82.4562 36.47C82.168 35.9848 82.3058 35.5176 82.2608 35.0795C82.1807 34.2948 80.9886 33.1413 80.2351 33.1275C79.9764 33.1233 79.8822 33.2966 79.819 33.4935C79.677 33.9302 79.5463 34.3697 79.4099 34.8078C78.9305 36.355 79.0838 37.6041 80.5654 38.7021C82.4028 40.0635 83.7804 41.852 84.1782 44.1991C84.2007 44.335 84.2218 44.4708 84.2682 44.7592C83.6736 44.3169 83.5639 43.7374 83.2771 43.2785C83.0972 42.9916 82.9974 42.5396 82.6263 42.5438C82.2734 42.5465 82.2945 43.0207 82.1413 43.2813C82.0724 43.3992 82.0499 43.5475 81.6858 43.6376C82.2031 41.547 81.1109 40.3325 79.3607 39.3218C79.5884 41.6911 80.252 44.0327 78.319 46.0028C78.0857 45.6007 78.3176 45.3248 78.4062 45.0503C78.8434 43.6917 78.9066 42.3608 78.267 41.0326C77.8804 40.2299 77.5993 39.3842 77.4222 38.5066C77.3898 38.3472 77.4292 38.1212 77.2296 38.0658C76.9948 38.002 76.8711 38.2238 76.7446 38.3666C75.8041 39.4313 75.1322 40.5571 75.9082 42.0156C76.0797 42.3372 76.1654 42.7018 76.3271 43.1455C75.7634 43.0539 75.6242 42.5743 75.2306 42.2984C74.8468 43.4116 74.7709 44.6261 73.7644 45.3969C74.3689 43.9717 74.314 42.4315 74.6261 40.9591C74.6655 40.7761 74.8004 40.5418 74.5783 40.4101C74.3661 40.2854 74.1946 40.4905 74.0413 40.6028C73.3399 41.12 72.7438 41.7466 72.1913 42.4134C71.9749 42.6741 71.8104 42.9832 71.2832 43.273C71.7837 41.967 72.3839 40.869 73.3722 40.2493C74.9143 39.283 75.9068 37.8439 77.1396 36.6115C77.7525 35.9987 77.4742 35.1946 77.6626 34.4917C77.7525 34.1534 78.0013 33.6668 77.7188 33.4436C77.432 33.2176 77.03 33.5919 76.6898 33.7222C75.9054 34.0231 75.1505 34.4127 74.3506 34.6594C70.5804 35.8226 68.4591 38.6106 66.8987 41.9532C66.536 42.7295 66.3026 43.5586 66.0833 44.5346C65.7642 44.1547 65.8401 43.8414 65.8654 43.5655C65.9554 42.5937 66.096 41.626 66.4488 40.7096C66.6344 40.2299 66.5079 39.997 66.0102 39.9471C64.8266 39.8292 63.6429 39.6476 62.4579 39.6296C61.6383 39.6171 61.1041 40.3422 60.4378 40.729C60.1539 40.894 59.995 41.2683 59.503 41.2392C59.6548 40.6125 60.2073 40.3256 60.6079 39.7987C59.7701 39.6185 59.0377 40.0289 58.1268 39.9401C58.6328 39.5353 59.115 39.3842 59.6 39.247C61.7592 38.637 63.9494 38.5357 66.1522 38.9475C66.7356 39.057 67.1601 38.9253 67.5509 38.5039C68.0598 37.9549 68.6039 37.4363 69.1282 36.8998C69.2449 36.7806 69.4248 36.6558 69.3489 36.47C69.2463 36.2205 69.0017 36.3134 68.8133 36.3411C67.7801 36.4936 66.744 36.6406 65.7164 36.8222C63.5417 37.2062 61.3783 37.0482 59.3821 36.1942C56.8728 35.1211 54.3157 34.8438 51.486 35.2043C51.8332 34.6775 52.2704 34.7398 52.6092 34.622C52.9592 34.5014 53.3655 34.6206 53.8111 34.3322C52.4363 33.6474 51.001 33.4796 49.5952 33.1913C51.4368 32.6838 53.1405 33.3729 54.8598 33.8387C54.975 33.3659 54.521 33.1413 54.6306 32.7753C54.6841 32.7615 54.7684 32.7227 54.7811 32.7393C56.4581 34.848 58.9646 35.1696 61.3656 35.6784C63.619 36.1553 67.4483 35.6451 69.654 34.5818C68.0598 33.976 66.8607 32.7338 65.0599 33.2606C64.1729 33.5198 63.262 33.6557 62.1416 33.6612C62.6238 33.2315 63.1186 33.2661 63.4939 33.0554C63.6668 32.9583 63.9058 32.8932 63.903 32.6575C63.8988 32.3927 63.6359 32.3885 63.4504 32.3428C62.5549 32.121 61.6566 31.9116 60.6023 31.6593C61.2447 31.3668 61.7761 31.4805 62.2892 31.5151C65.1682 31.7134 67.8799 32.5258 70.4665 33.7514C71.0344 34.0203 71.5588 34.0591 72.1393 33.8484C73.1473 33.481 74.1707 33.1566 75.1772 32.785C76.7797 32.1958 77.6991 31.0951 77.7075 29.3593C77.7188 26.9234 77.7188 24.4876 77.7244 22.0517C77.7244 21.6247 77.5374 21.2837 77.2507 20.9773C76.701 20.3867 76.2048 19.7406 75.6059 19.2041C74.7836 18.4665 74.5151 17.6056 74.546 16.5242C74.6584 12.5176 74.986 8.52345 75.2348 4.52514C75.329 3.01398 75.2953 1.49313 75.6284 0.00277275H75.977C76.1528 0.346594 76.1626 0.715371 76.1682 1.09108C76.2231 4.74973 76.2821 8.40838 76.3397 12.067C76.344 12.3526 76.344 12.6396 76.3622 12.9238C76.3749 13.1373 76.4522 13.3272 76.708 13.3425C76.9512 13.3577 77.0848 13.2011 77.1284 12.989C77.1677 12.7949 77.1705 12.5911 77.179 12.3928C77.3083 9.16673 77.4011 5.93924 77.5852 2.71591C77.6372 1.81477 77.567 0.881736 77.8973 0.00415913H78.2459C78.6227 1.78149 78.4399 3.59072 78.5594 5.38469C78.7225 7.80808 78.7113 10.2439 78.7858 12.6729C78.7942 12.9349 78.7281 13.3383 79.1625 13.3023C79.4914 13.2759 79.4549 12.9238 79.4661 12.6743C79.5224 11.3891 79.5814 10.1039 79.618 8.81875C79.6939 6.15967 79.7515 3.5006 79.8302 0.841531C79.8387 0.561483 79.9343 0.282821 79.9891 0.00415913C80.1058 0.00415913 80.221 0.00415913 80.3377 0.00415913C80.3996 0.281435 80.505 0.555937 80.5191 0.834599C80.6484 3.57408 80.7341 6.31772 80.8958 9.05582C80.9689 10.2828 81.0434 11.5083 81.0673 12.738C81.0729 13.0306 81.1306 13.3522 81.5256 13.3383C81.8756 13.3259 81.8854 13.0195 81.9023 12.7616C81.9164 12.5329 81.9093 12.3041 81.9122 12.0753C81.9642 8.50265 82.012 4.92857 82.0696 1.35588C82.0766 0.901145 82.0513 0.436709 82.2552 0.00554551H82.6038L82.6108 0Z" fill="#006837"/>
</g>
<defs>
<clipPath id="clip0_1211_913">
<rect width="122" height="46" fill="white"/>
</clipPath>
</defs>
</svg>
