<svg width="48" height="49" viewBox="0 0 48 49" fill="none" xmlns="http://www.w3.org/2000/svg">
<g id="service 1">
<g id="Icons">
<g id="service">
<path id="Vector" d="M7.19213 15.073H2V27.4293H7.19213V15.073Z" fill="#F39A24"/>
<path id="Vector_2" d="M2 27.175C2 27.175 6.98293 26.3429 9.32343 28.6097L17.6442 37.4511C17.6442 37.4511 20.2105 40.0935 24.3637 39.7916L39.2364 39.8154C39.2364 39.8154 41.7327 38.5078 39.6893 35.8654L24.9628 33.9778C24.9628 33.9778 23.1501 34.0051 21.5656 32.3303L18.4596 28.8356C18.4596 28.8356 17.5277 27.7289 18.7865 26.2692C18.7865 26.2692 20.0441 25.2113 21.253 26.2692L26.0338 31.1511C26.0338 31.1511 27.8466 32.3588 29.2551 31.1511C29.2551 31.1511 30.615 29.6415 28.8985 28.0309L18.1268 16.8573C18.1268 16.8573 16.7241 14.8437 13.2995 15.0898C13.2995 15.0898 3.08288 15.4464 2 15.0684" stroke="#006837" stroke-width="1.5" stroke-linejoin="round"/>
<path id="Vector_3" d="M35.6407 28.9899V20.6418" stroke="#006837" stroke-width="1.5" stroke-linejoin="round"/>
<path id="Vector_4" d="M41.5603 10.0972H46.1867V14.7235C46.1867 16.2935 45.563 17.7991 44.4529 18.9093C43.3427 20.0194 41.837 20.6431 40.2671 20.6431H35.6407V16.0156C35.6411 14.4458 36.2649 12.9404 37.375 11.8306C38.4851 10.7207 39.9906 10.0972 41.5603 10.0972Z" fill="#AFC9CA"/>
<path id="Vector_5" d="M41.5435 14.7485L35.0355 21.247" stroke="#006837" stroke-width="1.5" stroke-linejoin="round"/>
<path id="Vector_6" d="M35.642 20.6406H31.0156C30.2383 20.6406 29.4685 20.4875 28.7503 20.19C28.0321 19.8925 27.3795 19.4565 26.8299 18.9068C26.2802 18.3571 25.8441 17.7046 25.5466 16.9864C25.2492 16.2682 25.096 15.4984 25.096 14.721V10.0947L29.7224 10.0947C31.2923 10.0947 32.798 10.7184 33.9082 11.8285C35.0183 12.9387 35.642 14.4443 35.642 16.0143V20.6406Z" fill="#AFC9CA"/>
<path id="Vector_7" d="M29.7389 14.7485L36.2469 21.247" stroke="#006837" stroke-width="1.5" stroke-linejoin="round"/>
</g>
</g>
</g>
</svg>
