<svg width="25" height="25" viewBox="0 0 25 25" fill="none" xmlns="http://www.w3.org/2000/svg">
<g id="Icon / Twitter">
<path id="Vector" d="M21.6394 7.31213C21.175 7.93165 20.6136 8.47206 19.9769 8.91249C19.9769 9.07432 19.9769 9.23615 19.9769 9.40698C19.982 12.3458 18.8081 15.1638 16.7184 17.2292C14.6286 19.2946 11.7978 20.4346 8.86068 20.3936C7.16262 20.3993 5.4863 20.0116 3.96305 19.2608C3.88091 19.2249 3.82794 19.1437 3.82825 19.054V18.9551C3.82825 18.826 3.93286 18.7214 4.0619 18.7214C5.73105 18.6663 7.34065 18.0876 8.66297 17.0671C7.15216 17.0366 5.79282 16.1416 5.16723 14.7654C5.13564 14.6903 5.14547 14.604 5.1932 14.5379C5.24092 14.4718 5.31963 14.4354 5.40088 14.4418C5.86005 14.4879 6.32381 14.4452 6.76683 14.3159C5.09902 13.9697 3.84584 12.5851 3.66649 10.8904C3.66012 10.8091 3.69655 10.7304 3.76263 10.6826C3.8287 10.6349 3.91487 10.625 3.99001 10.6567C4.43757 10.8542 4.92072 10.9582 5.40987 10.9623C3.94847 10.0032 3.31724 8.17878 3.87318 6.52095C3.93057 6.35986 4.06844 6.24085 4.23613 6.20767C4.40381 6.17448 4.57659 6.23201 4.69095 6.35912C6.66302 8.45798 9.37267 9.70869 12.2485 9.84752C12.1749 9.55358 12.1387 9.25149 12.1407 8.94845C12.1676 7.35945 13.1508 5.94394 14.63 5.3646C16.1091 4.78527 17.7915 5.15676 18.8896 6.30517C19.638 6.16258 20.3616 5.91118 21.0373 5.55894C21.0868 5.52804 21.1496 5.52804 21.1991 5.55894C21.23 5.60846 21.23 5.67125 21.1991 5.72077C20.8718 6.47025 20.3189 7.09885 19.6175 7.51892C20.2317 7.44769 20.8351 7.3028 21.4148 7.08737C21.4636 7.05415 21.5277 7.05415 21.5765 7.08737C21.6174 7.10607 21.648 7.14184 21.6601 7.18515C21.6722 7.22846 21.6646 7.27491 21.6394 7.31213Z" fill="#699698"/>
</g>
</svg>
